<svg width="99" height="60" viewBox="0 0 99 60" fill="none" xmlns="http://www.w3.org/2000/svg">
<g clip-path="url(#clip0_216_4405)">
<path d="M7.95461 48.6979L0 30.6196H6.14841L11.9829 44.3598H12.2153L18.0538 30.6196H24.1981L16.2435 48.6979H7.95461Z" fill="#6B99C3"/>
<path d="M31.4021 37.0575C31.0633 37.2477 30.6976 37.3852 30.3175 37.4653C29.8357 37.5818 29.3413 37.6379 28.8457 37.6324C28.3527 37.6384 27.8609 37.5823 27.382 37.4653C27.0074 37.3839 26.6473 37.2464 26.3137 37.0575H26.0813V48.702H31.6304V37.0575H31.4021ZM31.3613 30.8072C30.6294 30.2872 29.7537 30.0078 28.8559 30.0078C27.958 30.0078 27.0824 30.2872 26.3504 30.8072C26.0636 31.059 25.8338 31.3691 25.6764 31.7168C25.5189 32.0644 25.4375 32.4417 25.4375 32.8234C25.4375 33.205 25.5189 33.5823 25.6764 33.93C25.8338 34.2777 26.0636 34.5878 26.3504 34.8396C27.0814 35.3619 27.9574 35.6427 28.8559 35.6427C29.7543 35.6427 30.6303 35.3619 31.3613 34.8396C31.6493 34.5885 31.8802 34.2786 32.0384 33.9309C32.1966 33.5831 32.2785 33.2054 32.2785 32.8234C32.2785 32.4413 32.1966 32.0637 32.0384 31.7159C31.8802 31.3681 31.6493 31.0583 31.3613 30.8072Z" fill="#6B99C3"/>
<path d="M40.846 49.0857C38.7993 49.0857 37.2065 48.542 36.0676 47.4548C34.9341 46.3825 34.3633 44.8168 34.3633 42.7701V30.4121H39.9164V33.9797H44.4013V35.8389H39.9164V42.3991C39.8968 42.7043 39.9419 43.0103 40.0487 43.297C40.1555 43.5836 40.3216 43.8445 40.5362 44.0625C41.0157 44.4725 41.635 44.6814 42.2649 44.6456C42.9829 44.6452 43.697 44.5409 44.385 44.3357V48.6494C43.8024 48.7993 43.2116 48.915 42.6155 48.996C42.0281 49.0616 41.4371 49.0916 40.846 49.0857Z" fill="#6B99C3"/>
<path d="M51.7754 49.0853C50.0195 49.0853 48.6889 48.7197 47.7838 47.9885C47.3455 47.6451 46.9943 47.2034 46.7584 46.6991C46.5225 46.1948 46.4087 45.642 46.4261 45.0855C46.4033 44.4348 46.554 43.7898 46.8628 43.2166C47.1716 42.6434 47.6274 42.1627 48.1834 41.8238C49.3549 41.0573 51.2834 40.6319 53.9689 40.5476C54.9411 40.5353 55.9118 40.4658 56.8759 40.3397C57.3272 40.2994 57.7656 40.1676 58.1643 39.9523C58.2663 39.8847 58.3496 39.7924 58.4066 39.6842C58.4636 39.5759 58.4925 39.455 58.4905 39.3326C58.4889 39.2028 58.4601 39.0749 58.4061 38.9569C58.352 38.8389 58.2738 38.7336 58.1766 38.6476C57.8501 38.3947 57.4639 38.2304 57.0553 38.1706C56.3189 38.0328 55.57 37.9726 54.821 37.9912C53.4337 37.9884 52.0511 38.1526 50.7031 38.4805C49.6028 38.7252 48.5323 39.0889 47.5106 39.565V35.1413C48.5409 34.6469 49.6302 34.2866 50.752 34.069C52.2588 33.7421 53.797 33.5821 55.3388 33.5919C57.029 33.5395 58.7153 33.7838 60.3212 34.3136C61.4497 34.6767 62.4381 35.3803 63.1507 36.3277C63.7603 37.2349 64.0724 38.3093 64.0436 39.4019V48.6979H58.4905V46.6838H58.2826C57.8379 47.1258 57.3343 47.5045 56.7862 47.8091C56.0739 48.2097 55.3135 48.5179 54.5234 48.7265C53.6278 48.9698 52.7034 49.0905 51.7754 49.0853ZM54.3562 45.3913C55.4565 45.3994 56.5437 45.1524 57.5324 44.6697C57.8788 44.5083 58.2012 44.2997 58.4905 44.0499V41.7015C58.3 41.8192 58.096 41.9136 57.883 41.9828C57.521 42.1073 57.1485 42.1987 56.7699 42.256C56.2534 42.3398 55.7316 42.3875 55.2084 42.3987C54.417 42.3831 53.6333 42.555 52.9211 42.9002C52.7194 43.0059 52.5499 43.1639 52.4301 43.3575C52.3104 43.5511 52.2448 43.7734 52.2402 44.001C52.2365 44.1999 52.2813 44.3966 52.3708 44.5742C52.4604 44.7519 52.5918 44.905 52.7539 45.0203C53.2381 45.3034 53.7969 45.4328 54.3562 45.3913Z" fill="#6B99C3"/>
<path d="M72.1381 30.106H66.585V48.702H72.1381V30.106Z" fill="#6B99C3"/>
<path d="M85.4451 38.6274H74.7832V42.5782H85.4451V38.6274Z" fill="#6B99C3"/>
<path d="M85.3878 59.8613C83.4546 59.8447 81.5333 59.5579 79.6797 59.0091V54.3856C80.5215 54.663 81.381 54.8836 82.2524 55.0461C82.9399 55.1577 83.6353 55.2136 84.3318 55.2133C85.7262 55.2133 86.7781 54.8871 87.5079 54.2307C88.2377 53.5742 88.5924 52.5794 88.5924 51.2339V30.6196H94.1456V51.4133C94.1456 54.1858 93.3831 56.2869 91.8583 57.7167C90.3334 59.1464 88.1766 59.8613 85.3878 59.8613Z" fill="#6B99C3"/>
<path d="M87.3018 12.6843C85.909 12.606 84.5163 12.8386 83.2246 13.3652C80.7782 14.4701 80.5744 16.525 80.5744 16.525C78.6296 28.5324 63.919 25.4296 63.919 25.4296C72.3874 23.2361 75.6491 15.6444 75.8408 15.1551C67.1523 26.0575 54.2316 25.8577 49.4246 25.3481L47.1699 22.1964L52.6497 22.1679C54.4121 22.1584 56.1156 21.5324 57.4648 20.3984L71.1642 8.87621C70.5649 7.99961 69.4477 7.02517 68.0778 5.99771C80.9209 4.26083 81.1248 10.7843 81.1248 10.7843C83.2565 11.1616 85.3319 11.8068 87.3018 12.7047" fill="#6B99C3"/>
<path d="M67.872 32.8256L63.9131 25.4295L66.1678 25.4214L68.9729 32.2874L67.872 32.8256Z" fill="#6B99C3"/>
<path d="M86.6889 8.62324C86.9421 8.34737 87.2146 8.08985 87.5043 7.85265C87.7644 7.64862 88.0367 7.46071 88.3197 7.28999C89.4822 6.62269 90.3728 5.56759 90.8354 4.30956C91.0328 3.85982 91.0862 3.36003 90.9885 2.8787C90.8907 2.39737 90.6465 1.95804 90.2893 1.62093C89.9321 1.28382 89.4794 1.06542 88.9932 0.995665C88.507 0.925908 88.0112 1.00821 87.5736 1.23128C87.256 1.39433 86.9867 1.63796 86.7928 1.93776C86.5989 2.23757 86.4871 2.58305 86.4687 2.93962C86.6262 2.83561 86.815 2.7895 87.0028 2.80915C87.1588 2.82721 87.3063 2.88994 87.4275 2.9898C87.5487 3.08966 87.6385 3.22239 87.6861 3.37205C87.7337 3.52172 87.7371 3.68194 87.6958 3.83346C87.6545 3.98499 87.5704 4.12138 87.4535 4.22624C87.3365 4.3311 87.1918 4.39996 87.0367 4.42456C86.8816 4.44915 86.7227 4.42844 86.5791 4.36489C86.4355 4.30135 86.3132 4.19769 86.2271 4.06637C86.141 3.93504 86.0946 3.78163 86.0936 3.62459C85.9957 2.5686 86.3749 1.36583 87.3983 0.892871C88.9395 0.101895 91.1248 1.04373 91.398 2.80508C91.606 4.14647 90.9454 5.39002 90.1382 6.43378C90.7335 6.22158 91.3479 6.06729 91.9729 5.97306C94.3091 5.56534 95.8014 3.43704 94.9411 1.29652C94.8595 1.41542 94.7477 1.51055 94.6173 1.57219C94.4869 1.63383 94.3425 1.65978 94.1988 1.6474C94.0552 1.63502 93.9173 1.58475 93.7994 1.50171C93.6815 1.41868 93.5877 1.30584 93.5276 1.17473C93.4675 1.04361 93.4432 0.898903 93.4573 0.755361C93.4714 0.611819 93.5233 0.474584 93.6077 0.357646C93.6921 0.240707 93.8061 0.148251 93.9379 0.0897127C94.0697 0.0311748 94.2147 0.00864698 94.3581 0.0244263C94.4744 0.0384857 94.5863 0.0774506 94.6862 0.138662C94.7861 0.199873 94.8717 0.281898 94.937 0.379147C96.3273 2.45444 95.5282 4.74582 93.6772 5.8752C94.4584 5.89107 95.2342 6.00895 95.9849 6.22584C100.099 7.94642 97.208 12.782 93.4325 10.8698C93.2725 10.7971 93.1403 10.6747 93.0555 10.5208C92.9707 10.3669 92.9379 10.1897 92.962 10.0157C92.986 9.8416 93.0657 9.67997 93.189 9.55483C93.3124 9.4297 93.4729 9.34776 93.6466 9.32122C93.8203 9.29468 93.9979 9.32496 94.153 9.40756C94.3081 9.49015 94.4324 9.62063 94.5073 9.77957C94.5822 9.93851 94.6038 10.1174 94.5688 10.2896C94.5339 10.4618 94.4442 10.6181 94.3132 10.7352C94.7119 10.8643 95.1352 10.8983 95.5493 10.8346C95.9634 10.7709 96.3569 10.6112 96.6984 10.3683C97.1194 10.0504 97.3982 9.57951 97.4745 9.05754C97.5508 8.53557 97.4185 8.00455 97.1061 7.57947C96.4252 6.70695 95.2387 6.42155 94.1623 6.38078C91.9077 6.29516 89.5592 6.85373 87.7856 8.29298C87.5777 8.46423 87.3779 8.64362 87.1903 8.83117C87.4597 8.78195 87.7366 8.79205 88.0016 8.86076C88.2667 8.92947 88.5136 9.05514 88.7251 9.22902C88.9366 9.40289 89.1077 9.6208 89.2264 9.86755C89.3451 10.1143 89.4086 10.384 89.4124 10.6578C89.4145 10.6971 89.4145 10.7366 89.4124 10.776V10.8086V10.8453C89.3938 11.0052 89.3282 11.1561 89.2239 11.2788C89.1197 11.4015 88.9814 11.4906 88.8266 11.5348C88.6718 11.5791 88.5074 11.5765 88.354 11.5275C88.2007 11.4784 88.0653 11.3851 87.9649 11.2592C87.8645 11.1333 87.8037 10.9805 87.79 10.82C87.7763 10.6596 87.8105 10.4987 87.8881 10.3577C87.9657 10.2166 88.0834 10.1017 88.2262 10.0274C88.369 9.95308 88.5307 9.92274 88.6908 9.94017C88.7293 9.94594 88.7674 9.95411 88.8049 9.96463C88.6702 9.77291 88.4948 9.61325 88.2914 9.49701C88.0879 9.38078 87.8613 9.31082 87.6277 9.29214C87.3941 9.27345 87.1593 9.30649 86.94 9.3889C86.7206 9.47131 86.5221 9.60106 86.3586 9.76893C84.7033 11.9095 83.9571 14.739 83.8389 17.4137H83.2559C83.303 16.2243 83.4835 15.0441 83.7941 13.895C84.1971 12.3826 84.8757 10.9576 85.796 9.69146C86.0754 9.32316 86.3734 8.96934 86.6889 8.63139" fill="#6B99C3"/>
<path d="M83.2186 13.3608C80.7723 14.4658 80.5684 16.5207 80.5684 16.5207C78.6236 28.528 63.9131 25.4253 63.9131 25.4253C72.3814 23.2317 75.6432 15.64 75.8348 15.1507C75.8348 15.1507 77.4861 13.9276 83.2186 13.3608Z" fill="#E4E5EA"/>
<path d="M69.7238 20.7773C69.7238 20.7773 63.0902 27.0481 45.3747 26.0451L43.7969 23.7537C43.7969 23.7537 59.7509 26.3386 69.7401 20.7773" fill="#E4E5EA"/>
<path d="M7.97949 59.8412V53.4033H11.4247V54.3859H9.20265V55.8863H11.2412V56.8689H9.20265V58.8668H11.4247V59.8412H7.97949Z" fill="#6B99C3"/>
<path d="M13.9814 59.8412V53.4033H15.9344L16.7947 57.6028L17.6509 53.4033H19.5998V59.8412H18.4664V54.0149H18.4337L17.2106 59.8575H16.3462L15.1231 54.0312V59.8412H13.9814Z" fill="#6B99C3"/>
<path d="M22.2695 59.841V53.4031H24.5813C24.8992 53.3973 25.2116 53.4868 25.4783 53.66C25.7364 53.8252 25.9427 54.0597 26.0736 54.3368C26.2104 54.6345 26.2787 54.9591 26.2733 55.2868C26.2768 55.6212 26.2072 55.9523 26.0695 56.2571C25.938 56.5439 25.729 56.7882 25.4661 56.9625C25.1978 57.1394 24.8821 57.2304 24.5609 57.2234H23.4886V59.841H22.2695ZM23.4927 56.2612H24.1084C24.2343 56.2708 24.3608 56.2536 24.4796 56.2108C24.5983 56.1679 24.7067 56.1003 24.7974 56.0125C24.9643 55.8137 25.0476 55.5579 25.0298 55.299C25.0472 55.0426 24.9638 54.7895 24.7974 54.5936C24.7059 54.5072 24.5973 54.4408 24.4787 54.3987C24.36 54.3565 24.2339 54.3396 24.1084 54.349H23.4927V56.2612Z" fill="#6B99C3"/>
<path d="M28.866 57.8311V55.4948C28.8582 55.1463 28.9092 54.799 29.0169 54.4674C29.1022 54.2059 29.2523 53.9703 29.4531 53.7824C29.6436 53.6111 29.869 53.4832 30.1136 53.4073C30.6694 53.2496 31.258 53.2496 31.8138 53.4073C32.0543 53.4803 32.2757 53.6056 32.4621 53.7742C32.6622 53.9612 32.8099 54.1974 32.8902 54.4592C32.9912 54.7949 33.0393 55.1443 33.0329 55.4948V57.8311C33.0394 58.1802 32.9912 58.5283 32.8902 58.8626C32.81 59.122 32.6606 59.3546 32.458 59.5353C32.2699 59.6987 32.0488 59.8197 31.8097 59.89C31.5339 59.9677 31.2482 60.0048 30.9617 60.0001C29.5646 60.0001 28.866 59.2771 28.866 57.8311ZM30.1136 57.9819C30.1136 58.675 30.395 59.0216 30.9617 59.0216C31.077 59.0277 31.1921 59.0065 31.2976 58.9597C31.4032 58.913 31.4962 58.842 31.5692 58.7525C31.7274 58.528 31.8037 58.256 31.7853 57.9819V55.3562C31.8037 55.0681 31.7279 54.7819 31.5692 54.5408C31.4998 54.446 31.408 54.3699 31.3019 54.3194C31.1959 54.2689 31.079 54.2455 30.9617 54.2513C30.395 54.2513 30.1136 54.6101 30.1136 55.3317V57.9819Z" fill="#6B99C3"/>
<path d="M35.3936 53.4033H36.6167L37.3588 58.7852L38.1742 53.4033H39.4707L40.2862 58.7852L41.0201 53.4033H42.2432L41.2036 59.8412H39.4911L38.851 55.3563L38.1864 59.8412H36.4577L35.3936 53.4033Z" fill="#6B99C3"/>
<path d="M44.5791 59.8412V53.4033H48.0284V54.3859H45.8063V55.8863H47.8449V56.8689H45.8063V58.8668H48.0284V59.8412H44.5791Z" fill="#6B99C3"/>
<path d="M50.5742 59.841V53.4031H53.0817C53.2977 53.3943 53.5131 53.4323 53.713 53.5147C53.9129 53.597 54.0925 53.7217 54.2396 53.8801C54.5324 54.2063 54.6886 54.6326 54.6759 55.0707C54.6971 55.4466 54.6124 55.821 54.4312 56.1511C54.3614 56.2715 54.2654 56.3747 54.1504 56.453C54.0354 56.5313 53.9042 56.5828 53.7667 56.6037C53.922 56.6313 54.0703 56.6895 54.2029 56.775C54.316 56.8463 54.4098 56.9443 54.4761 57.0604C54.5372 57.1645 54.5825 57.2772 54.6106 57.3947C54.637 57.5125 54.6506 57.6328 54.6514 57.7535V59.1071C54.6533 59.1838 54.6614 59.2601 54.6759 59.3354C54.6884 59.3909 54.7047 59.4454 54.7248 59.4985C54.7395 59.5452 54.7679 59.5864 54.8063 59.6168C54.8425 59.641 54.8851 59.6538 54.9287 59.6535V59.841H53.7055C53.5869 59.6944 53.4997 59.5251 53.4492 59.3435C53.3987 59.1618 53.386 58.9717 53.4119 58.785V58.043C53.4223 57.8073 53.3642 57.5737 53.2448 57.3702C53.1822 57.2811 53.0972 57.2101 52.9984 57.1643C52.8997 57.1185 52.7906 57.0995 52.6821 57.1093H51.7892V59.841H50.5742ZM51.7974 56.1715H52.6128C52.8399 56.1797 53.0615 56.1009 53.2325 55.9514C53.3223 55.8546 53.3905 55.7398 53.4327 55.6147C53.4749 55.4896 53.49 55.357 53.4772 55.2256C53.4915 55.1001 53.4789 54.9731 53.4402 54.8528C53.4015 54.7326 53.3377 54.622 53.2529 54.5284C53.0608 54.3851 52.8234 54.3156 52.5843 54.3327H51.7933L51.7974 56.1715Z" fill="#6B99C3"/>
<path d="M57.3613 59.8412V53.4033H58.5845V59.8412H57.3613Z" fill="#6B99C3"/>
<path d="M61.2754 59.8412V53.4033H62.5964L64.3822 58.0921C64.2635 57.2974 64.213 56.494 64.2314 55.6906V53.4033H65.3526V59.8412H64.0316L62.2458 55.1647C62.3684 55.9562 62.4189 56.7573 62.3966 57.558V59.8412H61.2754Z" fill="#6B99C3"/>
<path d="M67.9951 57.6758V55.572C67.9487 54.9565 68.1398 54.3466 68.5292 53.8677C68.7383 53.6643 68.9881 53.5075 69.2622 53.4077C69.5363 53.3079 69.8284 53.2674 70.1193 53.2888C70.3874 53.2842 70.6545 53.3228 70.9103 53.4029C71.1122 53.4585 71.3011 53.5533 71.4662 53.6821C71.6314 53.8108 71.7694 53.9709 71.8725 54.1531C71.9734 54.3239 72.0463 54.5097 72.0886 54.7035C72.1338 54.9042 72.1557 55.1094 72.1539 55.3151V55.4945H70.9307C70.9558 55.1697 70.8879 54.8445 70.735 54.5568C70.6657 54.4601 70.5726 54.383 70.4647 54.333C70.3568 54.283 70.2379 54.2618 70.1193 54.2714C69.9925 54.2588 69.8645 54.2788 69.7475 54.3295C69.6305 54.3801 69.5283 54.4598 69.4507 54.5608C69.2896 54.8443 69.2172 55.1695 69.2427 55.4945V57.5331C69.2196 57.9187 69.288 58.3044 69.4425 58.6584C69.5111 58.7637 69.6038 58.8511 69.713 58.9134C69.8221 58.9757 69.9445 59.0111 70.07 59.0167C70.1956 59.0223 70.3206 58.9979 70.4348 58.9455C70.5491 58.8931 70.6491 58.8143 70.7268 58.7155C70.8828 58.4258 70.9535 58.0978 70.9307 57.7696V57.3415H70.1153V56.3874H72.1539V59.8408H71.1957V59.1151C71.0832 59.3786 70.9032 59.6078 70.6738 59.7797C70.4182 59.9359 70.1207 60.0099 69.8217 59.9917C69.5809 59.9946 69.342 59.9474 69.1204 59.853C68.901 59.7593 68.7037 59.6204 68.5415 59.4453C68.352 59.2361 68.2126 58.9865 68.1337 58.7155C68.0357 58.3778 67.989 58.0274 67.9951 57.6758Z" fill="#6B99C3"/>
</g>
<defs>
<clipPath id="clip0_216_4405">
<rect width="98.0402" height="60" fill="white"/>
</clipPath>
</defs>
</svg>
